<svg xmlns="http://www.w3.org/2000/svg" viewBox="0 0 14633.12 4906.92">
  <defs>
    <filter id="threshold" color-interpolation-filters="sRGB">
      <feComponentTransfer>
        <feFuncR type="discrete" tableValues="0 1"/>
        <feFuncG type="discrete" tableValues="0 1"/>
        <feFuncB type="discrete" tableValues="0 1"/>
      </feComponentTransfer>
    </filter>
    <style>
      .cls-1{fill:#FFFFFF;}
    </style>
  </defs>
  <g id="Layer_2" data-name="Layer 2">
    <g id="Layer_1-2" data-name="Layer 1">
      <path class="cls-1" d="M933.56,920.92q0-60.4,56.56-60.42h786.82q129.81,0,243,48.88t197.35,132.39q84.2,83.64,132.43,196.73t48.18,240.41q0,88.71-24.41,169.7a621.12,621.12,0,0,1-306,370.26l334.24,659.52a104.75,104.75,0,0,0,9,25.73,59.15,59.15,0,0,1,6.49,27q0,38.55-45,38.57H2073.87q-46.23,0-61.71-47.56L1701.07,2105c-13.74,0-28.52.25-44.35.67s-37.73.62-65.56.62H1307.62v608.13q0,55.29-59.13,55.27H990.12q-25.74,0-41.15-13.5c-10.32-9-15.41-22.94-15.41-41.77Zm1083.76,559.91a288.26,288.26,0,0,0-20.57-107.12,302.72,302.72,0,0,0-57.89-93,298.12,298.12,0,0,0-88.7-66.73q-51.36-25.63-111.85-29.5-45-1.26-88-1.92t-89.4-.66H1307.62v596.55h387.66a478.48,478.48,0,0,0,48.19-2.58q60.45-3.87,111.22-28.21t86.76-64.78a298,298,0,0,0,55.92-92.37A303,303,0,0,0,2017.32,1480.83Z"/>
      <path class="cls-1" d="M2896.68,922.21q0-61.71,56.55-61.71H4192.57c22.24,0,38.14,6.27,47.56,18.72s14.15,28.18,14.15,47.11v227.09q0,23.22-16.1,41.28c-10.67,12.07-26.78,18.07-48.19,18.07H3275.9v389.54h704.53q25.74-2.57,41.15,11T4037,1658.9v232.7q0,23.13-12.83,41.11t-41.15,18H3275.9v466.67h947.49q36,0,47.63,15.48t11.51,47.73v234.87q0,54.18-56.56,54.19H2953.23q-23.11,0-39.88-12.87c-11.16-8.54-16.67-22.28-16.67-41.14Z"/>
      <path class="cls-1" d="M4768.51,919.67c0-18.86,4.88-33.23,14.79-43.1s22.94-15.2,39.19-16.07H6043.83q59.1,0,59.14,61.71v223.71c0,15.42-5.09,29.36-15.41,41.78s-24.83,18.65-43.73,18.65H5142.64v514.26H5352.2q65.58,0,136.26.63t136.26.66h209.56q23.11,0,39.89,13.5,16.62,13.49,16.66,44.35V1998.3a65.26,65.26,0,0,1-14.78,41.77c-9.83,12.45-23.36,18.65-40.45,18.65h-693v657q0,54-60.46,54H4819.91q-51.36-2.57-51.4-54Z"/>
      <path class="cls-1" d="M6578.7,920.92q0-60.4,56.56-60.42h786.82q129.81,0,243,48.88t197.35,132.39q84.2,83.64,132.42,196.73T8043,1478.91q0,88.71-24.41,169.7a621.12,621.12,0,0,1-306,370.26l334.24,659.52a104.75,104.75,0,0,0,9,25.73,59.15,59.15,0,0,1,6.49,27q0,38.55-45,38.57H7719q-46.23,0-61.71-47.56L7346.21,2105c-13.74,0-28.52.25-44.35.67s-37.73.62-65.56.62H6952.76v608.13q0,55.29-59.14,55.27H6635.26q-25.74,0-41.15-13.5c-10.32-9-15.41-22.94-15.41-41.77Zm1083.76,559.91a288.07,288.07,0,0,0-20.58-107.12,302.5,302.5,0,0,0-57.88-93,298.12,298.12,0,0,0-88.7-66.73q-51.36-25.63-111.85-29.5-45-1.26-88-1.92t-89.4-.66H6952.76v596.55h387.66a478.48,478.48,0,0,0,48.19-2.58q60.45-3.87,111.22-28.21t86.75-64.78a297.81,297.81,0,0,0,55.93-92.37A303,303,0,0,0,7662.46,1480.83Z"/>
      <path class="cls-1" d="M8410.72,2722.12a422.55,422.55,0,0,1,14.78-47.6q8.37-21.81,14.78-39.85l693-1725.29q3.87-14.18,21.2-31.52t46.93-17.36h207q30.85,0,44.35,15.44c9,10.29,15.69,19.29,19.94,27l42.47,100.28,678.81,1698.33a82.23,82.23,0,0,0,1.88,13.5,82.09,82.09,0,0,1,2,16.07q0,38.55-56.55,38.57H9887.92c-18.9,0-33.41-3.87-43.73-11.58s-18.82-19.7-25.73-36L9795.38,2663q-24.48-61.71-48.89-123.43t-47.55-124.72H8905.7q-33.48,90-64.93,169.07t-53.34,138.22q-18,47.53-66.88,47.56H8463.44q-24.48,0-39.2-9c-9.9-6-14.78-15-14.78-27C8409.46,2728.53,8409.88,2724.66,8410.72,2722.12Zm894.84-1371.77q-69.46,177.4-138.22,367.68t-138.21,366.39h547.63Z"/>
      <path class="cls-1" d="M10754.38,917.09q2.61-24.42,19.31-40.52t42.4-16.07h321.41q45,0,59.14,48.88l453.84,1265q114.44-318.84,229.5-632.54t228.17-632.5q18-48.84,59.13-48.88H12490c17.08,0,31,5.61,41.77,16.73a61,61,0,0,1,17.36,39.86q47.49,451.26,96.38,898.64t97.77,897.39V2717q0,52.71-56.63,52.72H12437.3q-57.84,0-60.46-56.56l-131.1-1216.22-428.11,1182.78a99.14,99.14,0,0,1-20.57,33.44q-14.22,15.43-29.57,15.41H11536q-16.74,0-30.82-14.78a88.37,88.37,0,0,1-20.57-34.07q-105.45-297-212.14-590.1t-214.71-591.39l-131.11,1214.93q0,56.6-59.13,56.56h-249.44q-56.6,0-56.56-56.56Z"/>
      <path class="cls-1" d="M13247.27,922.21q0-61.71,56.56-61.71h1239.33c22.25,0,38.15,6.27,47.56,18.72s14.16,28.18,14.16,47.11v227.09q0,23.22-16.11,41.28c-10.67,12.07-26.78,18.07-48.19,18.07h-914.09v389.54H14331q25.74-2.57,41.14,11t15.42,45.64v232.7q0,23.13-12.84,41.11t-41.14,18h-707.12v466.67H14574q36,0,47.63,15.48t11.5,47.73v234.87q0,54.18-56.55,54.19H13303.83q-23.11,0-39.89-12.87c-11.16-8.54-16.67-22.28-16.67-41.14Z"/>
      <path class="cls-1" d="M128.54,1756.36A128.53,128.53,0,0,1,0,1627.82V0H1637.25a128.54,128.54,0,0,1,0,257.08H257.08V1627.82A128.53,128.53,0,0,1,128.54,1756.36Z"/>
      <path class="cls-1" d="M937.26,3772.4q0-35.73,34.17-35.74h733.05q35.67,0,35.71,37.27v76.89a37.17,37.17,0,0,1-9.69,25.62c-6.49,7.26-15.14,10.88-26,10.88H1087.89V4268.6q123.52,0,243.09.38t243.8.39a36.31,36.31,0,0,1,24.13,8.54q10,8.58,10,28v78.42a37.78,37.78,0,0,1-8.93,24.86q-8.89,10.88-25.24,10.88H1087.89v437.21q0,32.58-36.48,32.6h-80q-34.21,0-34.17-32.6Z"/>
      <path class="cls-1" d="M2098.21,3770.83a34.88,34.88,0,0,1,8.93-24.06c5.92-6.73,14.36-10.11,25.24-10.11h80.75A37,37,0,0,1,2238,3746c7.25,6.24,10.88,14.5,10.88,24.86V4855.67q0,34.2-35.71,34.17h-80.75q-34.2,0-34.17-34.17Z"/>
      <path class="cls-1" d="M3543.33,4889.84q-17,0-29.49-17.09l-677.9-908.54v891.46q0,34.2-35.71,34.17h-78.45q-34.2,0-34.17-34.17V3772.4c0-10.36,3.07-18.9,9.28-25.63s14.5-10.11,24.89-10.11h104q20.19,0,32.63,17.08L3519.28,4632V3765.39q4.69-28.71,34.17-28.73h78.45c9.27,0,18,3.1,26,9.31s12,14.5,12,24.86V4855.67q0,34.2-38,34.17Z"/>
      <path class="cls-1" d="M4198.71,4861.11a49.54,49.54,0,0,1-15.49,21c-6.76,5.2-15.34,7.78-25.66,7.78h-82.29q-35.78,0-35.77-27.17a78.15,78.15,0,0,1,.42-9,49.67,49.67,0,0,1,1.18-6.59c.49-2.05,1.05-3.87,1.54-5.44l448-1076.29c1-2.58,2.37-5.54,3.9-8.93a37.1,37.1,0,0,1,6.21-9.31c2.58-2.85,6.34-5.3,11.23-7.39s11.57-3.1,19.8-3.1h51.26c7.81,0,14.15,1.05,19,3.1a32.11,32.11,0,0,1,11.3,7.39,37.1,37.1,0,0,1,6.21,9.31c1.53,3.39,2.79,6.35,3.83,8.93l444.22,1076.29c.49,2.62,1,5.2,1.53,7.78s1.05,5.06,1.6,7.36a29.86,29.86,0,0,1,.77,5.85q0,27.15-35.77,27.17h-82.29c-10.32,0-18.9-2.58-25.59-7.78s-11.93-12.13-15.55-21L4827,4647.54H4281.83q-27.19,69.15-49.72,125T4198.71,4861.11ZM4344,4496.91h423.23l-209.7-531.17Z"/>
      <path class="cls-1" d="M6290.69,4889.84q-17,0-29.49-17.09l-677.9-908.54v891.46q0,34.2-35.71,34.17h-78.45q-34.2,0-34.17-34.17V3772.4c0-10.36,3.07-18.9,9.28-25.63s14.5-10.11,24.89-10.11h104q20.19,0,32.63,17.08L6266.64,4632V3765.39q4.7-28.71,34.17-28.73h78.45c9.27,0,18,3.1,26,9.31s12,14.5,12,24.86V4855.67q0,34.2-38,34.17Z"/>
      <path class="cls-1" d="M7749.14,3833.73a57.15,57.15,0,0,1,13.94,14.37,29.76,29.76,0,0,1,5.44,16.7,29,29,0,0,1-6.2,18.62l-41.15,68.34c-8.85,12.45-17.85,18.65-27.19,18.65a31.92,31.92,0,0,1-12.07-2.72,76.21,76.21,0,0,1-15.13-8.92,455.41,455.41,0,0,0-117.64-60.57,488.36,488.36,0,0,0-130.06-24.86q-100.21,0-184.8,36.09t-146.37,97.07a446.8,446.8,0,0,0-96.73,141.35q-34.93,80.34-34.93,169.67,0,94.77,35.7,175.1t96,138.64q60.15,58.21,139.75,90.83T7395,4754.72a439.31,439.31,0,0,0,63.67-4.67,365.23,365.23,0,0,0,64.85-15.9,588.56,588.56,0,0,0,68.69-28.73,804.19,804.19,0,0,0,76.08-43.09c9.84-5.72,17.93-8.55,24.13-8.55,9.28,0,17.85,6.45,25.6,19.39l44.28,73q5.43,10.09,5.44,18.62,0,18.68-18.62,29.53A607,607,0,0,1,7588.33,4877q-87.77,29.86-189.47,29.88-82.32,0-158-20.95a580.49,580.49,0,0,1-141.29-59.8A601.83,601.83,0,0,1,6980,4733.35a587.09,587.09,0,0,1-151.82-260.91q-21-75.69-21-158a588.22,588.22,0,0,1,80.76-299,608.36,608.36,0,0,1,92.81-120.37,579.82,579.82,0,0,1,119.95-92.78,609.52,609.52,0,0,1,141.77-59.8q75.63-21.33,158-21.34,97.08,0,184,28.73T7749.14,3833.73Z"/>
      <path class="cls-1" d="M8145.09,3770.83a34.88,34.88,0,0,1,8.93-24.06c5.93-6.73,14.37-10.11,25.24-10.11H8260a37,37,0,0,1,24.82,9.31c7.26,6.24,10.88,14.5,10.88,24.86V4855.67q0,34.2-35.7,34.17h-80.76q-34.2,0-34.17-34.17Z"/>
      <path class="cls-1" d="M8828.43,4861.11a49.61,49.61,0,0,1-15.48,21q-10.16,7.8-25.66,7.78H8705q-35.78,0-35.78-27.17a78.15,78.15,0,0,1,.42-9,48.1,48.1,0,0,1,1.19-6.59c.49-2.05,1-3.87,1.53-5.44l448-1076.29c1-2.58,2.37-5.54,3.91-8.93a36.79,36.79,0,0,1,6.2-9.31c2.58-2.85,6.35-5.3,11.23-7.39s11.58-3.1,19.81-3.1h51.25c7.81,0,14.16,1.05,19,3.1a32.2,32.2,0,0,1,11.3,7.39,36.79,36.79,0,0,1,6.2,9.31c1.54,3.39,2.79,6.35,3.84,8.93L9697.4,4841.68c.49,2.62,1.05,5.2,1.54,7.78s1,5.06,1.6,7.36a29.86,29.86,0,0,1,.77,5.85q0,27.15-35.78,27.17h-82.29c-10.32,0-18.89-2.58-25.59-7.78s-11.92-12.13-15.55-21l-85.43-213.57H8911.55q-27.19,69.15-49.72,125T8828.43,4861.11Zm145.26-364.2h423.22l-209.69-531.17Z"/>
      <path class="cls-1" d="M10760.45,4739.17a33.64,33.64,0,0,1,24.12,9.73q10.05,9.74,10.05,26.78v80a34.14,34.14,0,0,1-9.28,24.05c-6.21,6.77-14.5,10.12-24.89,10.12H10100.4q-34.2,0-34.17-34.17V3770.83a34.3,34.3,0,0,1,9.35-24.06q9.3-10.09,26.36-10.11h80q14.75,0,24.48,8.54c6.48,5.72,9.69,14.26,9.69,25.63v968.34Z"/>
    </g>
  </g>
</svg>
